<?xml version="1.0" standalone="no"?>
<!DOCTYPE svg PUBLIC "-//W3C//DTD SVG 20010904//EN"
 "http://www.w3.org/TR/2001/REC-SVG-20010904/DTD/svg10.dtd">
<svg version="1.0" xmlns="http://www.w3.org/2000/svg"
 width="200.000000pt" height="200.000000pt" viewBox="0 0 200.000000 200.000000"
 preserveAspectRatio="xMidYMid meet">
<metadata>
Created by potrace 1.14, written by Peter Selinger 2001-2017
</metadata>
<g transform="translate(0.000000,200.000000) scale(0.100000,-0.100000)"
fill="#000000" stroke="none">
<path d="M912 1570 c-22 -33 -46 -77 -53 -97 -22 -64 -15 -243 9 -243 4 0 16
16 26 34 10 19 29 44 41 56 l23 21 37 -45 c21 -25 41 -46 45 -46 4 0 15 15 25
34 14 26 17 47 13 99 -6 74 -27 121 -87 197 l-39 50 -40 -60z"/>
<path d="M1299 1545 c-36 -18 -82 -52 -102 -74 -35 -39 -77 -110 -77 -131 0
-5 24 4 54 20 30 17 57 27 59 23 3 -5 9 -48 13 -95 10 -125 33 -125 101 -3 24
45 28 62 31 173 3 67 0 122 -4 122 -5 -1 -39 -16 -75 -35z"/>
<path d="M531 1421 c4 -43 10 -93 14 -112 11 -50 49 -120 83 -152 l29 -28 6
41 c7 51 12 57 34 38 18 -16 152 -98 159 -98 2 0 4 16 4 36 0 50 -63 173 -117
229 -30 32 -72 60 -128 86 -46 21 -85 39 -87 39 -2 0 -1 -35 3 -79z"/>
<path d="M1590 1338 c-100 -13 -199 -65 -260 -139 -46 -55 -50 -65 -50 -112
-1 -29 -7 -63 -15 -77 -22 -38 -19 -40 38 -24 149 44 273 150 327 280 17 42
30 77 28 78 -2 1 -32 -2 -68 -6z"/>
<path d="M1148 1315 c-25 -14 -56 -39 -69 -56 -20 -29 -21 -34 -9 -85 7 -30
14 -54 16 -54 1 0 31 13 67 29 59 27 64 32 70 66 8 49 -2 125 -17 125 -6 -1
-32 -12 -58 -25z"/>
<path d="M927 1268 c-30 -41 -47 -90 -47 -136 0 -25 13 -54 47 -104 l48 -69 9
28 c10 32 43 83 65 99 29 22 -10 134 -67 187 l-30 29 -25 -34z"/>
<path d="M291 1150 c86 -122 192 -186 364 -220 55 -10 101 -17 104 -15 2 3
-11 19 -29 37 -18 18 -41 52 -52 76 -21 47 -88 102 -178 147 -46 23 -72 29
-154 33 l-99 5 44 -63z"/>
<path d="M686 1172 c-3 -3 -6 -21 -6 -41 0 -127 91 -217 238 -237 29 -3 52 -3
52 1 0 4 -14 36 -30 71 -20 41 -47 77 -76 101 -52 44 -170 114 -178 105z"/>
<path d="M1157 1124 c-95 -48 -138 -93 -158 -167 -14 -54 -7 -67 38 -67 125 0
222 92 223 210 0 71 -5 73 -103 24z"/>
<path d="M1510 1010 c-60 -17 -201 -63 -295 -96 -22 -8 -47 -19 -55 -24 -24
-16 2 -27 108 -46 130 -23 275 -16 360 19 67 27 193 108 186 119 -10 15 -138
48 -188 47 -28 0 -80 -9 -116 -19z"/>
<path d="M416 869 c-50 -8 -134 -46 -176 -81 -24 -20 -24 -20 -5 -34 54 -40
209 -63 300 -44 111 23 287 95 350 144 l20 15 -20 1 c-152 5 -431 5 -469 -1z"/>
<path d="M805 769 c-82 -50 -169 -109 -193 -132 -54 -53 -92 -129 -99 -201
l-6 -56 69 26 c190 71 270 149 355 345 40 92 45 109 32 109 -5 0 -75 -41 -158
-91z"/>
<path d="M1010 818 c0 -71 20 -170 44 -223 28 -60 76 -110 156 -165 32 -22 62
-44 65 -50 12 -20 23 -9 34 34 34 135 4 204 -148 345 -125 116 -151 126 -151
59z"/>
<path d="M1100 854 c0 -5 28 -31 63 -59 34 -27 94 -81 133 -120 75 -75 147
-122 244 -162 59 -24 201 -56 209 -47 11 10 -39 93 -84 139 -65 66 -177 123
-374 193 -191 66 -191 66 -191 56z"/>
</g>
</svg>
